STARTFONT 2.1
COMMENT Copyright 2015-2018 Dave Jones <dave@waveform.org.uk>
COMMENT
COMMENT Redistribution and use in source and binary forms, with or without
COMMENT modification, are permitted provided that the following conditions are met:
COMMENT
COMMENT     * Redistributions of source code must retain the above copyright
COMMENT       notice, this list of conditions and the following disclaimer.
COMMENT     * Redistributions in binary form must reproduce the above copyright
COMMENT       notice, this list of conditions and the following disclaimer in the
COMMENT       documentation and/or other materials provided with the distribution.
COMMENT     * Neither the name of the copyright holder nor the
COMMENT       names of its contributors may be used to endorse or promote products
COMMENT       derived from this software without specific prior written permission.
COMMENT
COMMENT THIS SOFTWARE IS PROVIDED BY THE COPYRIGHT HOLDERS AND CONTRIBUTORS "AS IS"
COMMENT AND ANY EXPRESS OR IMPLIED WARRANTIES, INCLUDING, BUT NOT LIMITED TO, THE
COMMENT IMPLIED WARRANTIES OF MERCHANTABILITY AND FITNESS FOR A PARTICULAR PURPOSE
COMMENT ARE DISCLAIMED. IN NO EVENT SHALL THE COPYRIGHT HOLDER OR CONTRIBUTORS BE
COMMENT LIABLE FOR ANY DIRECT, INDIRECT, INCIDENTAL, SPECIAL, EXEMPLARY, OR
COMMENT CONSEQUENTIAL DAMAGES (INCLUDING, BUT NOT LIMITED TO, PROCUREMENT OF
COMMENT SUBSTITUTE GOODS OR SERVICES; LOSS OF USE, DATA, OR PROFITS; OR BUSINESS
COMMENT INTERRUPTION) HOWEVER CAUSED AND ON ANY THEORY OF LIABILITY, WHETHER IN
COMMENT CONTRACT, STRICT LIABILITY, OR TORT (INCLUDING NEGLIGENCE OR OTHERWISE)
COMMENT ARISING IN ANY WAY OUT OF THE USE OF THIS SOFTWARE, EVEN IF ADVISED OF THE
COMMENT POSSIBILITY OF SUCH DAMAGE.
FONT default
SIZE 84 6 6
FONTBOUNDINGBOX 7 7 0 0
STARTPROPERTIES 11
FOUNDRY "Fine"
FAMILY_NAME ""
WEIGHT_NAME "Medium"
SLANT "R"
SETWIDTH_NAME "Normal"
SPACING "c"
CHARSET_REGISTRY "ISO-8859"
CHARSET_ENCODING "1"

STARTCHAR space
ENCODING 32
SWIDTH 47 0
DWIDTH 4 0
BBX 0 0 0 0
BITMAP
ENDCHAR
STARTCHAR exclamation
ENCODING 33
SWIDTH 23 0
DWIDTH 2 0
BBX 1 7 0 0
BITMAP
80
80
80
80
80
00
80
ENDCHAR
STARTCHAR quote
ENCODING 34
SWIDTH 47 0
DWIDTH 4 0
BBX 3 2 0 5
BITMAP
a0
a0
ENDCHAR
STARTCHAR hash
ENCODING 35
SWIDTH 71 0
DWIDTH 6 0
BBX 5 7 0 0
BITMAP
50
50
f8
50
f8
50
50
ENDCHAR
STARTCHAR dollar
ENCODING 36
SWIDTH 71 0
DWIDTH 6 0
BBX 5 7 0 0
BITMAP
20
78
a0
70
28
f0
20
ENDCHAR
STARTCHAR percent
ENCODING 37
SWIDTH 71 0
DWIDTH 6 0
BBX 5 7 0 0
BITMAP
c0
c8
10
20
40
98
18
ENDCHAR
STARTCHAR ampersand
ENCODING 38
SWIDTH 71 0
DWIDTH 6 0
BBX 5 7 0 0
BITMAP
60
90
a0
40
a8
90
68
ENDCHAR
STARTCHAR apos
ENCODING 39
SWIDTH 35 0
DWIDTH 3 0
BBX 2 3 0 4
BITMAP
40
40
80
ENDCHAR
STARTCHAR open-paren
ENCODING 40
SWIDTH 47 0
DWIDTH 4 0
BBX 3 7 0 0
BITMAP
20
40
80
80
80
40
20
ENDCHAR
STARTCHAR close-paren
ENCODING 41
SWIDTH 47 0
DWIDTH 4 0
BBX 3 7 0 0
BITMAP
80
40
20
20
20
40
80
ENDCHAR
STARTCHAR asterisk
ENCODING 42
SWIDTH 71 0
DWIDTH 6 0
BBX 5 5 0 1
BITMAP
20
a8
70
a8
20
ENDCHAR
STARTCHAR plus
ENCODING 43
SWIDTH 71 0
DWIDTH 6 0
BBX 5 5 0 1
BITMAP
20
20
f8
20
20
ENDCHAR
STARTCHAR comma
ENCODING 44
SWIDTH 35 0
DWIDTH 3 0
BBX 2 2 0 0
BITMAP
40
80
ENDCHAR
STARTCHAR minus
ENCODING 45
SWIDTH 71 0
DWIDTH 6 0
BBX 5 1 0 3
BITMAP
f8
ENDCHAR
STARTCHAR slash
ENCODING 47
SWIDTH 95 0
DWIDTH 8 0
BBX 7 7 0 0
BITMAP
02
04
08
10
20
40
80
ENDCHAR
STARTCHAR 0
ENCODING 48
SWIDTH 71 0
DWIDTH 6 0
BBX 5 7 0 0
BITMAP
70
88
98
a8
c8
88
70
ENDCHAR
STARTCHAR 1
ENCODING 49
SWIDTH 47 0
DWIDTH 4 0
BBX 3 7 0 0
BITMAP
40
c0
40
40
40
40
e0
ENDCHAR
STARTCHAR 2
ENCODING 50
SWIDTH 71 0
DWIDTH 6 0
BBX 5 7 0 0
BITMAP
70
88
08
10
20
40
f8
ENDCHAR
STARTCHAR C063
ENCODING 51
SWIDTH 71 0
DWIDTH 6 0
BBX 5 7 0 0
BITMAP
f8
10
20
10
08
88
70
ENDCHAR
STARTCHAR C064
ENCODING 52
SWIDTH 71 0
DWIDTH 6 0
BBX 5 7 0 0
BITMAP
10
30
50
90
f8
10
10
ENDCHAR
STARTCHAR C065
ENCODING 53
SWIDTH 71 0
DWIDTH 6 0
BBX 5 7 0 0
BITMAP
f8
80
f0
08
08
88
70
ENDCHAR
STARTCHAR C066
ENCODING 54
SWIDTH 71 0
DWIDTH 6 0
BBX 5 7 0 0
BITMAP
30
40
80
f0
88
88
70
ENDCHAR
STARTCHAR C067
ENCODING 55
SWIDTH 71 0
DWIDTH 6 0
BBX 5 7 0 0
BITMAP
f8
08
10
20
20
20
20
ENDCHAR
STARTCHAR C070
ENCODING 56
SWIDTH 71 0
DWIDTH 6 0
BBX 5 7 0 0
BITMAP
70
88
88
70
88
88
70
ENDCHAR
STARTCHAR C071
ENCODING 57
SWIDTH 71 0
DWIDTH 6 0
BBX 5 7 0 0
BITMAP
70
88
88
78
08
10
60
ENDCHAR
STARTCHAR C072
ENCODING 58
SWIDTH 23 0
DWIDTH 2 0
BBX 1 5 0 1
BITMAP
80
80
00
80
80
ENDCHAR
STARTCHAR C073
ENCODING 59
SWIDTH 35 0
DWIDTH 3 0
BBX 2 5 0 0
BITMAP
40
40
00
40
80
ENDCHAR
STARTCHAR C074
ENCODING 60
SWIDTH 59 0
DWIDTH 5 0
BBX 4 7 0 0
BITMAP
10
20
40
80
40
20
10
ENDCHAR
STARTCHAR C075
ENCODING 61
SWIDTH 71 0
DWIDTH 6 0
BBX 5 3 0 2
BITMAP
f8
00
f8
ENDCHAR
STARTCHAR C076
ENCODING 62
SWIDTH 59 0
DWIDTH 5 0
BBX 4 7 0 0
BITMAP
80
40
20
10
20
40
80
ENDCHAR
STARTCHAR C077
ENCODING 63
SWIDTH 71 0
DWIDTH 6 0
BBX 5 7 0 0
BITMAP
70
88
08
10
20
00
20
ENDCHAR
STARTCHAR C100
ENCODING 64
SWIDTH 71 0
DWIDTH 6 0
BBX 5 7 0 0
BITMAP
70
88
08
68
a8
a8
70
ENDCHAR
STARTCHAR C101
ENCODING 65
SWIDTH 71 0
DWIDTH 6 0
BBX 5 7 0 0
BITMAP
70
88
88
f8
88
88
88
ENDCHAR
STARTCHAR C102
ENCODING 66
SWIDTH 71 0
DWIDTH 6 0
BBX 5 7 0 0
BITMAP
f0
88
88
f0
88
88
f0
ENDCHAR
STARTCHAR C103
ENCODING 67
SWIDTH 71 0
DWIDTH 6 0
BBX 5 7 0 0
BITMAP
70
88
80
80
80
88
70
ENDCHAR
STARTCHAR C104
ENCODING 68
SWIDTH 71 0
DWIDTH 6 0
BBX 5 7 0 0
BITMAP
e0
90
88
88
88
90
e0
ENDCHAR
STARTCHAR C105
ENCODING 69
SWIDTH 71 0
DWIDTH 6 0
BBX 5 7 0 0
BITMAP
f8
80
80
f0
80
80
f8
ENDCHAR
STARTCHAR C106
ENCODING 70
SWIDTH 71 0
DWIDTH 6 0
BBX 5 7 0 0
BITMAP
f8
80
80
f0
80
80
80
ENDCHAR
STARTCHAR C107
ENCODING 71
SWIDTH 71 0
DWIDTH 6 0
BBX 5 7 0 0
BITMAP
70
88
80
b8
88
88
70
ENDCHAR
STARTCHAR C110
ENCODING 72
SWIDTH 71 0
DWIDTH 6 0
BBX 5 7 0 0
BITMAP
88
88
88
f8
88
88
88
ENDCHAR
STARTCHAR C111
ENCODING 73
SWIDTH 47 0
DWIDTH 4 0
BBX 3 7 0 0
BITMAP
e0
40
40
40
40
40
e0
ENDCHAR
STARTCHAR C112
ENCODING 74
SWIDTH 71 0
DWIDTH 6 0
BBX 5 7 0 0
BITMAP
38
10
10
10
10
90
60
ENDCHAR
STARTCHAR C113
ENCODING 75
SWIDTH 71 0
DWIDTH 6 0
BBX 5 7 0 0
BITMAP
88
90
a0
c0
a0
90
88
ENDCHAR
STARTCHAR C114
ENCODING 76
SWIDTH 71 0
DWIDTH 6 0
BBX 5 7 0 0
BITMAP
80
80
80
80
80
80
f8
ENDCHAR
STARTCHAR C115
ENCODING 77
SWIDTH 71 0
DWIDTH 6 0
BBX 5 7 0 0
BITMAP
88
d8
a8
a8
88
88
88
ENDCHAR
STARTCHAR C116
ENCODING 78
SWIDTH 71 0
DWIDTH 6 0
BBX 5 7 0 0
BITMAP
88
88
c8
a8
98
88
88
ENDCHAR
STARTCHAR C117
ENCODING 79
SWIDTH 71 0
DWIDTH 6 0
BBX 5 7 0 0
BITMAP
70
88
88
88
88
88
70
ENDCHAR
STARTCHAR C120
ENCODING 80
SWIDTH 71 0
DWIDTH 6 0
BBX 5 7 0 0
BITMAP
f0
88
88
f0
80
80
80
ENDCHAR
STARTCHAR C121
ENCODING 81
SWIDTH 71 0
DWIDTH 6 0
BBX 5 7 0 0
BITMAP
70
88
88
88
a8
90
68
ENDCHAR
STARTCHAR C122
ENCODING 82
SWIDTH 71 0
DWIDTH 6 0
BBX 5 7 0 0
BITMAP
f0
88
88
f0
a0
90
88
ENDCHAR
STARTCHAR C123
ENCODING 83
SWIDTH 71 0
DWIDTH 6 0
BBX 5 7 0 0
BITMAP
78
80
80
70
08
08
f0
ENDCHAR
STARTCHAR C124
ENCODING 84
SWIDTH 71 0
DWIDTH 6 0
BBX 5 7 0 0
BITMAP
f8
20
20
20
20
20
20
ENDCHAR
STARTCHAR C125
ENCODING 85
SWIDTH 71 0
DWIDTH 6 0
BBX 5 7 0 0
BITMAP
88
88
88
88
88
88
70
ENDCHAR
STARTCHAR C126
ENCODING 86
SWIDTH 71 0
DWIDTH 6 0
BBX 5 7 0 0
BITMAP
88
88
88
88
88
50
20
ENDCHAR
STARTCHAR C127
ENCODING 87
SWIDTH 71 0
DWIDTH 6 0
BBX 5 7 0 0
BITMAP
88
88
88
a8
a8
d8
88
ENDCHAR
STARTCHAR C130
ENCODING 88
SWIDTH 71 0
DWIDTH 6 0
BBX 5 7 0 0
BITMAP
88
88
50
20
50
88
88
ENDCHAR
STARTCHAR C131
ENCODING 89
SWIDTH 71 0
DWIDTH 6 0
BBX 5 7 0 0
BITMAP
88
88
50
20
20
20
20
ENDCHAR
STARTCHAR C132
ENCODING 90
SWIDTH 71 0
DWIDTH 6 0
BBX 5 7 0 0
BITMAP
f8
08
10
20
40
80
f8
ENDCHAR
STARTCHAR C133
ENCODING 91
SWIDTH 47 0
DWIDTH 4 0
BBX 3 7 0 0
BITMAP
e0
80
80
80
80
80
e0
ENDCHAR
STARTCHAR C134
ENCODING 92
SWIDTH 83 0
DWIDTH 7 0
BBX 7 7 0 0
BITMAP
80
40
20
10
08
04
02
ENDCHAR
STARTCHAR C135
ENCODING 93
SWIDTH 47 0
DWIDTH 4 0
BBX 3 7 0 0
BITMAP
e0
20
20
20
20
20
e0
ENDCHAR
STARTCHAR C136
ENCODING 94
SWIDTH 47 0
DWIDTH 4 0
BBX 3 2 0 5
BITMAP
40
a0
ENDCHAR
STARTCHAR C137
ENCODING 95
SWIDTH 59 0
DWIDTH 5 0
BBX 4 1 0 0
BITMAP
f0
ENDCHAR
STARTCHAR C140
ENCODING 96
SWIDTH 35 0
DWIDTH 3 0
BBX 2 2 0 5
BITMAP
80
40
ENDCHAR
STARTCHAR C141
ENCODING 97
SWIDTH 59 0
DWIDTH 5 0
BBX 4 5 0 0
BITMAP
60
10
70
90
70
ENDCHAR
STARTCHAR C142
ENCODING 98
SWIDTH 59 0
DWIDTH 5 0
BBX 4 7 0 0
BITMAP
80
80
a0
d0
90
90
60
ENDCHAR
STARTCHAR C143
ENCODING 99
SWIDTH 59 0
DWIDTH 5 0
BBX 4 5 0 0
BITMAP
60
90
80
90
60
ENDCHAR
STARTCHAR C144
ENCODING 100
SWIDTH 59 0
DWIDTH 5 0
BBX 4 7 0 0
BITMAP
10
10
50
b0
90
90
70
ENDCHAR
STARTCHAR C145
ENCODING 101
SWIDTH 59 0
DWIDTH 5 0
BBX 4 5 0 0
BITMAP
60
90
f0
80
60
ENDCHAR
STARTCHAR C146
ENCODING 102
SWIDTH 59 0
DWIDTH 5 0
BBX 4 7 0 0
BITMAP
20
50
40
e0
40
40
40
ENDCHAR
STARTCHAR C147
ENCODING 103
SWIDTH 59 0
DWIDTH 5 0
BBX 4 5 0 0
BITMAP
70
90
70
10
60
ENDCHAR
STARTCHAR C150
ENCODING 104
SWIDTH 59 0
DWIDTH 5 0
BBX 4 7 0 0
BITMAP
80
80
a0
d0
90
90
90
ENDCHAR
STARTCHAR C151
ENCODING 105
SWIDTH 47 0
DWIDTH 4 0
BBX 3 7 0 0
BITMAP
40
00
c0
40
40
40
e0
ENDCHAR
STARTCHAR C152
ENCODING 106
SWIDTH 59 0
DWIDTH 5 0
BBX 4 7 0 0
BITMAP
10
00
10
10
10
90
60
ENDCHAR
STARTCHAR C153
ENCODING 107
SWIDTH 59 0
DWIDTH 5 0
BBX 4 7 0 0
BITMAP
80
80
90
a0
c0
a0
90
ENDCHAR
STARTCHAR C154
ENCODING 108
SWIDTH 47 0
DWIDTH 4 0
BBX 3 7 0 0
BITMAP
c0
40
40
40
40
40
e0
ENDCHAR
STARTCHAR C155
ENCODING 109
SWIDTH 71 0
DWIDTH 6 0
BBX 5 5 0 0
BITMAP
d0
a8
a8
a8
a8
ENDCHAR
STARTCHAR C156
ENCODING 110
SWIDTH 59 0
DWIDTH 5 0
BBX 4 5 0 0
BITMAP
a0
d0
90
90
90
ENDCHAR
STARTCHAR C157
ENCODING 111
SWIDTH 59 0
DWIDTH 5 0
BBX 4 5 0 0
BITMAP
60
90
90
90
60
ENDCHAR
STARTCHAR C160
ENCODING 112
SWIDTH 59 0
DWIDTH 5 0
BBX 4 5 0 0
BITMAP
e0
90
e0
80
80
ENDCHAR
STARTCHAR C161
ENCODING 113
SWIDTH 59 0
DWIDTH 5 0
BBX 4 5 0 0
BITMAP
70
90
70
10
10
ENDCHAR
STARTCHAR C162
ENCODING 114
SWIDTH 59 0
DWIDTH 5 0
BBX 4 5 0 0
BITMAP
a0
d0
80
80
80
ENDCHAR
STARTCHAR C163
ENCODING 115
SWIDTH 59 0
DWIDTH 5 0
BBX 4 5 0 0
BITMAP
70
80
60
10
e0
ENDCHAR
STARTCHAR C164
ENCODING 116
SWIDTH 59 0
DWIDTH 5 0
BBX 4 6 0 0
BITMAP
40
e0
40
40
50
20
ENDCHAR
STARTCHAR C165
ENCODING 117
SWIDTH 59 0
DWIDTH 5 0
BBX 4 5 0 0
BITMAP
90
90
90
b0
50
ENDCHAR
STARTCHAR C166
ENCODING 118
SWIDTH 47 0
DWIDTH 4 0
BBX 3 5 0 0
BITMAP
a0
a0
a0
a0
40
ENDCHAR
STARTCHAR C167
ENCODING 119
SWIDTH 71 0
DWIDTH 6 0
BBX 5 5 0 0
BITMAP
88
88
a8
a8
50
ENDCHAR
STARTCHAR C170
ENCODING 120
SWIDTH 71 0
DWIDTH 6 0
BBX 5 5 0 0
BITMAP
88
50
20
50
88
ENDCHAR
STARTCHAR C171
ENCODING 121
SWIDTH 59 0
DWIDTH 5 0
BBX 4 5 0 0
BITMAP
90
50
20
20
c0
ENDCHAR
STARTCHAR C172
ENCODING 122
SWIDTH 71 0
DWIDTH 6 0
BBX 5 5 0 0
BITMAP
f8
10
20
40
f8
ENDCHAR
STARTCHAR C173
ENCODING 123
SWIDTH 47 0
DWIDTH 4 0
BBX 3 7 0 0
BITMAP
20
40
40
80
40
40
20
ENDCHAR
STARTCHAR C174
ENCODING 124
SWIDTH 23 0
DWIDTH 2 0
BBX 1 7 0 0
BITMAP
80
80
80
80
80
80
80
ENDCHAR
STARTCHAR C175
ENCODING 125
SWIDTH 47 0
DWIDTH 4 0
BBX 3 7 0 0
BITMAP
80
40
40
20
40
40
80
ENDCHAR
STARTCHAR C176
ENCODING 126
SWIDTH 59 0
DWIDTH 5 0
BBX 4 2 0 3
BITMAP
50
a0
ENDCHAR
STARTCHAR C200
ENCODING 128
SWIDTH 71 0
DWIDTH 6 0
BBX 5 7 0 0
BITMAP
38
40
f0
40
e0
40
38
ENDCHAR
STARTCHAR C240
ENCODING 160
SWIDTH 47 0
DWIDTH 4 0
BBX 0 0 0 0
BITMAP
ENDCHAR
STARTCHAR C241
ENCODING 161
SWIDTH 23 0
DWIDTH 2 0
BBX 1 7 0 0
BITMAP
80
00
80
80
80
80
80
ENDCHAR
STARTCHAR C242
ENCODING 162
SWIDTH 59 0
DWIDTH 5 0
BBX 4 7 0 0
BITMAP
20
70
a0
a0
a0
70
20
ENDCHAR
STARTCHAR C243
ENCODING 163
SWIDTH 59 0
DWIDTH 5 0
BBX 4 7 0 0
BITMAP
30
40
40
e0
40
40
f0
ENDCHAR
STARTCHAR C245
ENCODING 165
SWIDTH 71 0
DWIDTH 6 0
BBX 5 7 0 0
BITMAP
88
50
f8
20
f8
20
20
ENDCHAR
STARTCHAR C246
ENCODING 166
SWIDTH 23 0
DWIDTH 2 0
BBX 1 7 0 0
BITMAP
80
80
80
00
80
80
80
ENDCHAR
STARTCHAR C247
ENCODING 167
SWIDTH 47 0
DWIDTH 4 0
BBX 3 7 0 0
BITMAP
60
80
40
a0
40
20
c0
ENDCHAR
STARTCHAR C253
ENCODING 171
SWIDTH 59 0
DWIDTH 5 0
BBX 5 5 0 1
BITMAP
28
50
a0
50
28
ENDCHAR
STARTCHAR C254
ENCODING 172
SWIDTH 71 0
DWIDTH 6 0
BBX 5 2 0 3
BITMAP
f8
08
ENDCHAR
STARTCHAR C260
ENCODING 176
SWIDTH 47 0
DWIDTH 4 0
BBX 3 3 0 4
BITMAP
40
a0
40
ENDCHAR
STARTCHAR C261
ENCODING 177
SWIDTH 71 0
DWIDTH 6 0
BBX 5 7 0 0
BITMAP
20
20
f8
20
20
00
f8
ENDCHAR
STARTCHAR C262
ENCODING 178
SWIDTH 47 0
DWIDTH 4 0
BBX 3 4 0 3
BITMAP
c0
20
40
e0
ENDCHAR
STARTCHAR C263
ENCODING 179
SWIDTH 47 0
DWIDTH 4 0
BBX 3 4 0 3
BITMAP
c0
60
20
c0
ENDCHAR
STARTCHAR C265
ENCODING 181
SWIDTH 59 0
DWIDTH 5 0
BBX 4 5 0 0
BITMAP
90
90
90
e0
80
ENDCHAR
STARTCHAR C266
ENCODING 182
SWIDTH 71 0
DWIDTH 6 0
BBX 5 7 0 0
BITMAP
78
e8
e8
68
28
28
28
ENDCHAR
STARTCHAR C267
ENCODING 183
SWIDTH 23 0
DWIDTH 2 0
BBX 1 1 0 3
BITMAP
80
ENDCHAR
STARTCHAR C271
ENCODING 185
SWIDTH 47 0
DWIDTH 4 0
BBX 3 4 0 3
BITMAP
40
c0
40
e0
ENDCHAR
STARTCHAR C272
ENCODING 186
SWIDTH 83 0
DWIDTH 7 0
BBX 0 0 0 0
BITMAP
ENDCHAR
STARTCHAR C273
ENCODING 187
SWIDTH 71 0
DWIDTH 6 0
BBX 5 5 0 1
BITMAP
a0
50
28
50
a0
ENDCHAR
STARTCHAR C277
ENCODING 191
SWIDTH 71 0
DWIDTH 6 0
BBX 5 7 0 0
BITMAP
20
00
20
40
80
88
70
ENDCHAR
ENDFONT
